<svg xmlns="http://www.w3.org/2000/svg" x="0px" y="0px" width="100" height="100" viewBox="0 0 100 100">
<circle cx="13" cy="29" r="2" fill="#ee3e54"></circle><circle cx="77" cy="13" r="1" fill="#f1bc19"></circle><circle cx="50" cy="50" r="37" fill="#fce0a2"></circle><circle cx="83" cy="15" r="4" fill="#f1bc19"></circle><circle cx="87" cy="24" r="2" fill="#ee3e54"></circle><circle cx="81" cy="76" r="2" fill="#fbcd59"></circle><circle cx="15" cy="63" r="4" fill="#fbcd59"></circle><circle cx="25" cy="87" r="2" fill="#ee3e54"></circle><circle cx="18.5" cy="53.5" r="2.5" fill="#fff"></circle><circle cx="21" cy="67" r="1" fill="#f1bc19"></circle><circle cx="80" cy="34" r="1" fill="#fff"></circle><path fill="#355ca8" d="M50.625,29C40.615,29,32.5,37.365,32.5,47.375S40.615,65.5,50.625,65.5S68.75,57.385,68.75,47.375	S60.635,29,50.625,29L50.625,29z"></path><path fill="#1e65d6" d="M40.194,39.215c-1.65-0.631-3.441-0.976-5.313-0.976C26.662,38.239,20,44.901,20,53.12	c0,3.095,0.946,5.968,2.563,8.348c0.076-0.033,20.556-8.611,33.007-13.61C48.69,43.71,42.379,40.051,40.194,39.215z"></path><path fill="#4792dd" d="M80,55.966c0-6.646-5.388-12.034-12.034-12.034c-1.246,0-2.447,0.19-3.579,0.541	c-1.245,0.388-4.565,1.678-8.817,3.385c10.471,6.313,22.238,13.745,22.815,14.11C79.406,60.2,80,58.154,80,55.966z"></path><g><path fill="#55a7f9" d="M78.386,61.969c-0.579-0.365-12.344-7.798-22.815-14.11c-12.452,4.998-32.932,13.576-33.009,13.609 C23.084,62.235,27.034,68,34.88,68c6.288,0,20.22,0,32.942,0C74.586,68,77.685,63.182,78.386,61.969z"></path><path fill="#472b29" d="M67.822,68.25H42.938c-0.138,0-0.25-0.112-0.25-0.25s0.112-0.25,0.25-0.25h24.884 c6.024,0,9.089-3.83,10.226-5.699c-2.386-1.506-13.021-8.198-22.499-13.914c-4.238,1.702-9.874,4.007-16.753,6.85 c-0.125,0.051-0.273-0.008-0.327-0.136c-0.053-0.128,0.009-0.274,0.136-0.327c6.943-2.869,12.621-5.189,16.874-6.897 c0.072-0.027,0.155-0.021,0.222,0.019c9.701,5.848,20.652,12.745,22.749,14.068l0.071,0.044c0.113,0.072,0.149,0.221,0.083,0.337 C77.768,63.538,74.521,68.25,67.822,68.25z M39.938,68.25H34.88c-7.435,0-11.466-5.084-12.524-6.642 c-0.041-0.061-0.054-0.136-0.034-0.207c0.02-0.07,0.068-0.129,0.135-0.16c0.047-0.021,4.293-1.799,9.673-4.033 c0.127-0.055,0.274,0.006,0.326,0.135c0.054,0.127-0.007,0.273-0.135,0.326c-4.739,1.969-8.365,3.485-9.376,3.909 c1.247,1.735,5.106,6.172,11.936,6.172h5.058c0.138,0,0.25,0.112,0.25,0.25S40.075,68.25,39.938,68.25z M34.074,56.921 c-0.098,0-0.191-0.058-0.23-0.154c-0.054-0.127,0.007-0.273,0.135-0.326l2.774-1.151c0.126-0.051,0.273,0.007,0.327,0.136 c0.053,0.128-0.008,0.273-0.136,0.327l-2.774,1.149C34.139,56.915,34.106,56.921,34.074,56.921z"></path></g><path fill="#472b29" d="M50.625,29.4c8.112,0,15.366,5.857,17.25,13.926l0.229,0.979l1.001,0.096	C75.088,44.976,79.6,49.948,79.6,55.967c0,2.025-0.54,4.031-1.56,5.801c-0.79,1.368-3.862,5.832-10.217,5.832H34.88	c-7.114,0-10.973-4.866-11.986-6.357C21.262,58.84,20.4,56.032,20.4,53.12c0-7.761,6.308-14.255,14.062-14.476l0.749-0.021	l0.398-0.635C38.928,32.691,44.682,29.4,50.625,29.4 M50.625,28c-6.562,0-12.717,3.682-16.203,9.245	C25.877,37.488,19,44.517,19,53.12c0,3.193,0.946,6.274,2.735,8.909C22.847,63.665,27.077,69,34.88,69h32.942	c7.107,0,10.545-5,11.43-6.532C80.396,60.485,81,58.237,81,55.967c0-6.771-5.105-12.319-11.762-12.959	C67.231,34.411,59.524,28,50.625,28L50.625,28z"></path><g><path fill="#472b29" d="M67.822,65H49.5c-0.276,0-0.5-0.224-0.5-0.5s0.224-0.5,0.5-0.5h18.322 c2.774,0,4.632-1.23,5.7-2.263c0.2-0.191,0.517-0.187,0.707,0.012c0.192,0.199,0.187,0.516-0.012,0.707 C73.016,63.617,70.931,65,67.822,65z M46.5,65h-2c-0.276,0-0.5-0.224-0.5-0.5s0.224-0.5,0.5-0.5h2c0.276,0,0.5,0.224,0.5,0.5 S46.776,65,46.5,65z M41.5,65h-0.979c-0.276,0-0.5-0.224-0.5-0.5s0.224-0.5,0.5-0.5H41.5c0.276,0,0.5,0.224,0.5,0.5 S41.776,65,41.5,65z M76.374,57.917c-0.029,0-0.059-0.002-0.088-0.008c-0.271-0.048-0.453-0.307-0.405-0.579 C75.96,56.879,76,56.42,76,55.967c0-1.75-0.544-3.407-1.574-4.795l-0.186-0.24c-0.173-0.215-0.139-0.529,0.077-0.702 c0.215-0.172,0.53-0.138,0.702,0.077c0.071,0.088,0.14,0.177,0.208,0.268C76.388,52.137,77,54.001,77,55.967 c0,0.511-0.045,1.028-0.135,1.537C76.823,57.746,76.612,57.917,76.374,57.917z M24.178,57.498c-0.204,0-0.396-0.126-0.47-0.329 C23.238,55.874,23,54.512,23,53.12c0-6.367,5.175-11.695,11.535-11.877l2.407-0.068c0.252,0.018,0.507,0.21,0.515,0.485 c0.008,0.276-0.21,0.507-0.485,0.515l-2.407,0.068C28.739,42.409,24,47.289,24,53.12c0,1.274,0.218,2.522,0.647,3.707 c0.095,0.26-0.04,0.547-0.299,0.641C24.292,57.488,24.234,57.498,24.178,57.498z M72.382,49.157c-0.092,0-0.182-0.026-0.261-0.073 v0.001c-0.537-0.321-1.112-0.579-1.71-0.766c-0.264-0.083-0.41-0.363-0.328-0.627c0.082-0.263,0.36-0.412,0.627-0.328 c0.667,0.209,1.31,0.496,1.91,0.854c0.156,0.084,0.262,0.25,0.262,0.439C72.882,48.934,72.658,49.157,72.382,49.157z M67.556,47.869l-2.013-0.193c-0.214-0.021-0.391-0.176-0.439-0.385l-0.734-3.146C62.862,37.688,57.082,33,50.625,33 c-3.094,0-6.195,1.146-8.733,3.227c-0.216,0.176-0.529,0.144-0.704-0.069c-0.175-0.214-0.144-0.529,0.069-0.704 C43.974,33.227,47.301,32,50.625,32c6.917,0,13.106,5.012,14.719,11.918l0.652,2.797l1.579,0.151l0.03,0.506L67.556,47.869z"></path></g><g><path fill="#472b29" d="M55.57,48.108c-0.099,0-0.192-0.06-0.232-0.157c-0.051-0.128,0.011-0.273,0.14-0.325 c2.88-1.156,5.14-2.043,6.716-2.637c0.13-0.048,0.273,0.017,0.322,0.146c0.048,0.129-0.018,0.273-0.146,0.322 c-1.572,0.591-3.828,1.478-6.706,2.633C55.633,48.103,55.602,48.108,55.57,48.108z"></path></g><g><path fill="#472b29" d="M55.57,48.107c-0.044,0-0.089-0.012-0.129-0.036c-3.368-2.03-6.265-3.741-8.609-5.085 c-0.12-0.068-0.161-0.222-0.093-0.341c0.067-0.12,0.22-0.162,0.341-0.093c2.349,1.346,5.248,3.059,8.619,5.091 c0.118,0.071,0.156,0.225,0.085,0.343C55.737,48.064,55.655,48.107,55.57,48.107z M45.216,42.034c-0.042,0-0.084-0.01-0.122-0.032 c-1.002-0.562-1.888-1.043-2.63-1.431c-0.123-0.064-0.17-0.215-0.106-0.337c0.065-0.123,0.218-0.17,0.337-0.106 c0.748,0.391,1.637,0.874,2.644,1.438c0.12,0.067,0.163,0.22,0.096,0.34C45.388,41.988,45.303,42.034,45.216,42.034z M40.785,39.714c-0.034,0-0.069-0.007-0.103-0.021c-0.217-0.098-0.411-0.18-0.579-0.244c-1.665-0.637-3.423-0.96-5.223-0.96 c-0.138,0-0.25-0.112-0.25-0.25s0.112-0.25,0.25-0.25c1.861,0,3.679,0.334,5.401,0.993c0.177,0.068,0.379,0.152,0.605,0.254 c0.126,0.057,0.182,0.205,0.126,0.331C40.972,39.659,40.881,39.714,40.785,39.714z"></path></g>
</svg>