<svg xmlns="http://www.w3.org/2000/svg" x="0px" y="0px" width="100" height="100" viewBox="0 0 64 64">
<linearGradient id="y3STQ7Y0L0H3dxf5AMhbLa_69456_gr1" x1="57.835" x2="57.835" y1="20.064" y2="40.005" gradientUnits="userSpaceOnUse" spreadMethod="reflect"><stop offset="0" stop-color="#1a6dff"></stop><stop offset="1" stop-color="#c822ff"></stop></linearGradient><path fill="url(#y3STQ7Y0L0H3dxf5AMhbLa_69456_gr1)" d="M63 20L63 22 52.67 22 53.32 20z"></path><linearGradient id="y3STQ7Y0L0H3dxf5AMhbLb_69456_gr2" x1="40" x2="40" y1="25.064" y2="45.005" gradientUnits="userSpaceOnUse" spreadMethod="reflect"><stop offset="0" stop-color="#1a6dff"></stop><stop offset="1" stop-color="#c822ff"></stop></linearGradient><path fill="url(#y3STQ7Y0L0H3dxf5AMhbLb_69456_gr2)" d="M36 40H44V42H36z"></path><linearGradient id="y3STQ7Y0L0H3dxf5AMhbLc_69456_gr3" x1="49.515" x2="49.515" y1="24.064" y2="44.005" gradientUnits="userSpaceOnUse" spreadMethod="reflect"><stop offset="0" stop-color="#1a6dff"></stop><stop offset="1" stop-color="#c822ff"></stop></linearGradient><path fill="url(#y3STQ7Y0L0H3dxf5AMhbLc_69456_gr3)" d="M53.22 36L52.48 38 46.56 38 45.81 36z"></path><linearGradient id="y3STQ7Y0L0H3dxf5AMhbLd_69456_gr4" x1="41.5" x2="41.5" y1="24.064" y2="44.005" gradientUnits="userSpaceOnUse" spreadMethod="reflect"><stop offset="0" stop-color="#1a6dff"></stop><stop offset="1" stop-color="#c822ff"></stop></linearGradient><path fill="url(#y3STQ7Y0L0H3dxf5AMhbLd_69456_gr4)" d="M39 36H44V38H39z"></path><linearGradient id="y3STQ7Y0L0H3dxf5AMhbLe_69456_gr5" x1="41.5" x2="41.5" y1="23.064" y2="43.005" gradientUnits="userSpaceOnUse" spreadMethod="reflect"><stop offset="0" stop-color="#1a6dff"></stop><stop offset="1" stop-color="#c822ff"></stop></linearGradient><path fill="url(#y3STQ7Y0L0H3dxf5AMhbLe_69456_gr5)" d="M39 32H44V34H39z"></path><linearGradient id="y3STQ7Y0L0H3dxf5AMhbLf_69456_gr6" x1="59" x2="59" y1="25.064" y2="45.005" gradientUnits="userSpaceOnUse" spreadMethod="reflect"><stop offset="0" stop-color="#1a6dff"></stop><stop offset="1" stop-color="#c822ff"></stop></linearGradient><path fill="url(#y3STQ7Y0L0H3dxf5AMhbLf_69456_gr6)" d="M55 40H63V42H55z"></path><linearGradient id="y3STQ7Y0L0H3dxf5AMhbLg_69456_gr7" x1="41.82" x2="41.82" y1="21.064" y2="41.005" gradientUnits="userSpaceOnUse" spreadMethod="reflect"><stop offset="0" stop-color="#1a6dff"></stop><stop offset="1" stop-color="#c822ff"></stop></linearGradient><path fill="url(#y3STQ7Y0L0H3dxf5AMhbLg_69456_gr7)" d="M47.64 26L36 26 36 24 46.99 24z"></path><linearGradient id="y3STQ7Y0L0H3dxf5AMhbLh_69456_gr8" x1="43.975" x2="43.975" y1="22.064" y2="42.005" gradientUnits="userSpaceOnUse" spreadMethod="reflect"><stop offset="0" stop-color="#1a6dff"></stop><stop offset="1" stop-color="#c822ff"></stop></linearGradient><path fill="url(#y3STQ7Y0L0H3dxf5AMhbLh_69456_gr8)" d="M48.95 30L39 30 39 28 48.3 28z"></path><linearGradient id="y3STQ7Y0L0H3dxf5AMhbLi_69456_gr9" x1="49.505" x2="49.505" y1="23.064" y2="43.005" gradientUnits="userSpaceOnUse" spreadMethod="reflect"><stop offset="0" stop-color="#1a6dff"></stop><stop offset="1" stop-color="#c822ff"></stop></linearGradient><path fill="url(#y3STQ7Y0L0H3dxf5AMhbLi_69456_gr9)" d="M54.7 32L53.96 34 45.06 34 44.31 32z"></path><linearGradient id="y3STQ7Y0L0H3dxf5AMhbLj_69456_gr10" x1="57.5" x2="57.5" y1="23.064" y2="43.005" gradientUnits="userSpaceOnUse" spreadMethod="reflect"><stop offset="0" stop-color="#1a6dff"></stop><stop offset="1" stop-color="#c822ff"></stop></linearGradient><path fill="url(#y3STQ7Y0L0H3dxf5AMhbLj_69456_gr10)" d="M55 32H60V34H55z"></path><linearGradient id="y3STQ7Y0L0H3dxf5AMhbLk_69456_gr11" x1="40" x2="40" y1="26.064" y2="46.005" gradientUnits="userSpaceOnUse" spreadMethod="reflect"><stop offset="0" stop-color="#1a6dff"></stop><stop offset="1" stop-color="#c822ff"></stop></linearGradient><path fill="url(#y3STQ7Y0L0H3dxf5AMhbLk_69456_gr11)" d="M36 44H44V46H36z"></path><linearGradient id="y3STQ7Y0L0H3dxf5AMhbLl_69456_gr12" x1="41.165" x2="41.165" y1="20.064" y2="40.005" gradientUnits="userSpaceOnUse" spreadMethod="reflect"><stop offset="0" stop-color="#1a6dff"></stop><stop offset="1" stop-color="#c822ff"></stop></linearGradient><path fill="url(#y3STQ7Y0L0H3dxf5AMhbLl_69456_gr12)" d="M46.33 22L36 22 36 20 45.68 20z"></path><linearGradient id="y3STQ7Y0L0H3dxf5AMhbLm_69456_gr13" x1="49.535" x2="49.535" y1="26.064" y2="46.005" gradientUnits="userSpaceOnUse" spreadMethod="reflect"><stop offset="0" stop-color="#1a6dff"></stop><stop offset="1" stop-color="#c822ff"></stop></linearGradient><path fill="url(#y3STQ7Y0L0H3dxf5AMhbLm_69456_gr13)" d="M50.28 44L49.54 46 48.79 44z"></path><linearGradient id="y3STQ7Y0L0H3dxf5AMhbLn_69456_gr14" x1="59" x2="59" y1="26.064" y2="46.005" gradientUnits="userSpaceOnUse" spreadMethod="reflect"><stop offset="0" stop-color="#1a6dff"></stop><stop offset="1" stop-color="#c822ff"></stop></linearGradient><path fill="url(#y3STQ7Y0L0H3dxf5AMhbLn_69456_gr14)" d="M55 44H63V46H55z"></path><linearGradient id="y3STQ7Y0L0H3dxf5AMhbLo_69456_gr15" x1="57.18" x2="57.18" y1="21.064" y2="41.005" gradientUnits="userSpaceOnUse" spreadMethod="reflect"><stop offset="0" stop-color="#1a6dff"></stop><stop offset="1" stop-color="#c822ff"></stop></linearGradient><path fill="url(#y3STQ7Y0L0H3dxf5AMhbLo_69456_gr15)" d="M63 24L63 26 51.36 26 52.01 24z"></path><linearGradient id="y3STQ7Y0L0H3dxf5AMhbLp_69456_gr16" x1="49.525" x2="49.525" y1="25.064" y2="45.005" gradientUnits="userSpaceOnUse" spreadMethod="reflect"><stop offset="0" stop-color="#1a6dff"></stop><stop offset="1" stop-color="#c822ff"></stop></linearGradient><path fill="url(#y3STQ7Y0L0H3dxf5AMhbLp_69456_gr16)" d="M51.75 40L51.02 42 48.04 42 47.3 40z"></path><linearGradient id="y3STQ7Y0L0H3dxf5AMhbLq_69456_gr17" x1="57.5" x2="57.5" y1="24.064" y2="44.005" gradientUnits="userSpaceOnUse" spreadMethod="reflect"><stop offset="0" stop-color="#1a6dff"></stop><stop offset="1" stop-color="#c822ff"></stop></linearGradient><path fill="url(#y3STQ7Y0L0H3dxf5AMhbLq_69456_gr17)" d="M55 36H60V38H55z"></path><linearGradient id="y3STQ7Y0L0H3dxf5AMhbLr_69456_gr18" x1="55.025" x2="55.025" y1="22.064" y2="42.005" gradientUnits="userSpaceOnUse" spreadMethod="reflect"><stop offset="0" stop-color="#1a6dff"></stop><stop offset="1" stop-color="#c822ff"></stop></linearGradient><path fill="url(#y3STQ7Y0L0H3dxf5AMhbLr_69456_gr18)" d="M60 28L60 30 50.05 30 50.7 28z"></path><linearGradient id="y3STQ7Y0L0H3dxf5AMhbLs_69456_gr19" x1="6" x2="6" y1="20" y2="39.807" gradientUnits="userSpaceOnUse" spreadMethod="reflect"><stop offset="0" stop-color="#1a6dff"></stop><stop offset="1" stop-color="#c822ff"></stop></linearGradient><path fill="url(#y3STQ7Y0L0H3dxf5AMhbLs_69456_gr19)" d="M1 20H11V22H1z"></path><linearGradient id="y3STQ7Y0L0H3dxf5AMhbLt_69456_gr20" x1="6" x2="6" y1="21" y2="40.807" gradientUnits="userSpaceOnUse" spreadMethod="reflect"><stop offset="0" stop-color="#1a6dff"></stop><stop offset="1" stop-color="#c822ff"></stop></linearGradient><path fill="url(#y3STQ7Y0L0H3dxf5AMhbLt_69456_gr20)" d="M1 24H11V26H1z"></path><linearGradient id="y3STQ7Y0L0H3dxf5AMhbLu_69456_gr21" x1="6" x2="6" y1="22" y2="41.807" gradientUnits="userSpaceOnUse" spreadMethod="reflect"><stop offset="0" stop-color="#1a6dff"></stop><stop offset="1" stop-color="#c822ff"></stop></linearGradient><path fill="url(#y3STQ7Y0L0H3dxf5AMhbLu_69456_gr21)" d="M3 28H9V30H3z"></path><linearGradient id="y3STQ7Y0L0H3dxf5AMhbLv_69456_gr22" x1="6" x2="6" y1="23" y2="42.807" gradientUnits="userSpaceOnUse" spreadMethod="reflect"><stop offset="0" stop-color="#1a6dff"></stop><stop offset="1" stop-color="#c822ff"></stop></linearGradient><path fill="url(#y3STQ7Y0L0H3dxf5AMhbLv_69456_gr22)" d="M3 32H9V34H3z"></path><linearGradient id="y3STQ7Y0L0H3dxf5AMhbLw_69456_gr23" x1="6" x2="6" y1="24" y2="43.807" gradientUnits="userSpaceOnUse" spreadMethod="reflect"><stop offset="0" stop-color="#1a6dff"></stop><stop offset="1" stop-color="#c822ff"></stop></linearGradient><path fill="url(#y3STQ7Y0L0H3dxf5AMhbLw_69456_gr23)" d="M3 36H9V38H3z"></path><linearGradient id="y3STQ7Y0L0H3dxf5AMhbLx_69456_gr24" x1="6" x2="6" y1="25" y2="44.807" gradientUnits="userSpaceOnUse" spreadMethod="reflect"><stop offset="0" stop-color="#1a6dff"></stop><stop offset="1" stop-color="#c822ff"></stop></linearGradient><path fill="url(#y3STQ7Y0L0H3dxf5AMhbLx_69456_gr24)" d="M1 40H11V42H1z"></path><linearGradient id="y3STQ7Y0L0H3dxf5AMhbLy_69456_gr25" x1="6" x2="6" y1="26" y2="45.807" gradientUnits="userSpaceOnUse" spreadMethod="reflect"><stop offset="0" stop-color="#1a6dff"></stop><stop offset="1" stop-color="#c822ff"></stop></linearGradient><path fill="url(#y3STQ7Y0L0H3dxf5AMhbLy_69456_gr25)" d="M1 44H11V46H1z"></path><linearGradient id="y3STQ7Y0L0H3dxf5AMhbLz_69456_gr26" x1="23.11" x2="23.11" y1="20.193" y2="39.895" gradientUnits="userSpaceOnUse" spreadMethod="reflect"><stop offset="0" stop-color="#6dc7ff"></stop><stop offset="1" stop-color="#e6abff"></stop></linearGradient><path fill="url(#y3STQ7Y0L0H3dxf5AMhbLz_69456_gr26)" d="M32.22,22H14v-2h13.75C29.52,20,31.09,20.77,32.22,22z"></path><linearGradient id="y3STQ7Y0L0H3dxf5AMhbLA_69456_gr27" x1="23.99" x2="23.99" y1="21.193" y2="40.895" gradientUnits="userSpaceOnUse" spreadMethod="reflect"><stop offset="0" stop-color="#6dc7ff"></stop><stop offset="1" stop-color="#e6abff"></stop></linearGradient><path fill="url(#y3STQ7Y0L0H3dxf5AMhbLA_69456_gr27)" d="M33.98,26H14v-2h19.51C33.77,24.62,33.93,25.29,33.98,26z"></path><linearGradient id="y3STQ7Y0L0H3dxf5AMhbLB_69456_gr28" x1="24.025" x2="24.025" y1="23.193" y2="42.895" gradientUnits="userSpaceOnUse" spreadMethod="reflect"><stop offset="0" stop-color="#6dc7ff"></stop><stop offset="1" stop-color="#e6abff"></stop></linearGradient><path fill="url(#y3STQ7Y0L0H3dxf5AMhbLB_69456_gr28)" d="M27.75,33c1.22,0,2.34,0.37,3.3,1H17v-2h14.05C30.09,32.63,28.97,33,27.75,33z"></path><linearGradient id="y3STQ7Y0L0H3dxf5AMhbLC_69456_gr29" x1="23.11" x2="23.11" y1="26.193" y2="45.895" gradientUnits="userSpaceOnUse" spreadMethod="reflect"><stop offset="0" stop-color="#6dc7ff"></stop><stop offset="1" stop-color="#e6abff"></stop></linearGradient><path fill="url(#y3STQ7Y0L0H3dxf5AMhbLC_69456_gr29)" d="M32.22,44c-1.13,1.23-2.7,2-4.47,2H14v-2H32.22z"></path><linearGradient id="y3STQ7Y0L0H3dxf5AMhbLD_69456_gr30" x1="23.985" x2="23.985" y1="25.193" y2="44.895" gradientUnits="userSpaceOnUse" spreadMethod="reflect"><stop offset="0" stop-color="#6dc7ff"></stop><stop offset="1" stop-color="#e6abff"></stop></linearGradient><path fill="url(#y3STQ7Y0L0H3dxf5AMhbLD_69456_gr30)" d="M33.97,40c-0.04,0.71-0.2,1.37-0.46,2H14v-2H33.97z"></path><linearGradient id="y3STQ7Y0L0H3dxf5AMhbLE_69456_gr31" x1="30.61" x2="30.61" y1="22.193" y2="41.895" gradientUnits="userSpaceOnUse" spreadMethod="reflect"><stop offset="0" stop-color="#6dc7ff"></stop><stop offset="1" stop-color="#e6abff"></stop></linearGradient><path fill="url(#y3STQ7Y0L0H3dxf5AMhbLE_69456_gr31)" d="M33.83,28c-0.16,0.73-0.45,1.4-0.85,2h-5.59c0.21-0.19,0.36-0.48,0.36-0.9V28H33.83z"></path><linearGradient id="y3STQ7Y0L0H3dxf5AMhbLF_69456_gr32" x1="20" x2="20" y1="22.193" y2="41.895" gradientUnits="userSpaceOnUse" spreadMethod="reflect"><stop offset="0" stop-color="#6dc7ff"></stop><stop offset="1" stop-color="#e6abff"></stop></linearGradient><path fill="url(#y3STQ7Y0L0H3dxf5AMhbLF_69456_gr32)" d="M17 28H23V30H17z"></path><linearGradient id="y3STQ7Y0L0H3dxf5AMhbLG_69456_gr33" x1="30.575" x2="30.575" y1="24.193" y2="43.895" gradientUnits="userSpaceOnUse" spreadMethod="reflect"><stop offset="0" stop-color="#6dc7ff"></stop><stop offset="1" stop-color="#e6abff"></stop></linearGradient><path fill="url(#y3STQ7Y0L0H3dxf5AMhbLG_69456_gr33)" d="M27.75,38v-1.1c0-0.41-0.18-0.69-0.41-0.9h5.64c0.38,0.6,0.66,1.28,0.83,2H27.75z"></path><linearGradient id="y3STQ7Y0L0H3dxf5AMhbLH_69456_gr34" x1="20" x2="20" y1="24.193" y2="43.895" gradientUnits="userSpaceOnUse" spreadMethod="reflect"><stop offset="0" stop-color="#6dc7ff"></stop><stop offset="1" stop-color="#e6abff"></stop></linearGradient><path fill="url(#y3STQ7Y0L0H3dxf5AMhbLH_69456_gr34)" d="M17 36H23V38H17z"></path>
</svg>